<svg width="79" height="80" viewBox="0 0 79 80" fill="none" xmlns="http://www.w3.org/2000/svg">
<path fill-rule="evenodd" clip-rule="evenodd" d="M0 0V79H15.3877V71.7815H7.21687V7.21687H71.7815V47.0749H79V0H0Z" fill="#75C7E3"/>
<path fill-rule="evenodd" clip-rule="evenodd" d="M23 79H28V55H23V79Z" fill="black"/>
<path fill-rule="evenodd" clip-rule="evenodd" d="M44.4628 75.5567C40.1618 75.5567 37.0832 72.2362 37.0832 67.4998C37.0832 62.7634 39.8691 59.3946 44.365 59.3946C47.0044 59.3946 49.2039 60.6642 50.6703 62.7151L53.9941 59.4433C51.4033 56.4159 48.1287 55 44.2676 55C37.3275 55 32 60.4201 32 67.4998C32 74.5799 36.8872 80 44.4628 80C48.5687 80 51.8433 78.2422 54.1893 75.1658L50.719 72.2362C49.2039 74.3358 47.1023 75.5567 44.4628 75.5567Z" fill="black"/>
<path fill-rule="evenodd" clip-rule="evenodd" d="M61.2489 69.5995C62.0193 73.1886 64.7803 75.5568 68.4121 75.5568C71.0515 75.5568 73.1531 74.3359 74.6683 72.2363L78.1385 75.1659C75.7925 78.2419 72.5183 79.9997 68.4121 79.9997C60.8368 79.9997 55.9492 74.5796 55.9492 67.4999C55.9492 60.4198 60.7981 55.0001 67.7382 55.0001C72.9379 55.0001 80.0487 58.6183 78.8711 69.5995H61.2489ZM74.1575 65.7421C73.626 60.8647 70.4671 59.3943 68.3151 59.3943C64.6617 59.3943 62.0168 61.6856 61.169 65.7421H74.1575Z" fill="black"/>
</svg>
