<svg width="79" height="123" viewBox="0 0 79 123" fill="none" xmlns="http://www.w3.org/2000/svg">
<path d="M79 0H0V122.953H79V0Z" fill="#18B5BB"/>
<path d="M54.8374 56.024C54.8506 48.0586 52.5012 40.2681 48.0864 33.638C53.1157 34.8721 57.5843 37.7606 60.7746 41.8396C63.965 45.9185 65.692 50.9514 65.6782 56.1298C65.6645 61.3082 63.9109 66.3318 60.6989 70.3939C57.487 74.4559 53.0031 77.3206 47.9674 78.528C52.4733 71.8906 54.868 64.0463 54.8374 56.024ZM16.1124 96.172H18.0074V110.03H24.0474L23.8104 111.57H16.1124V96.172ZM29.8474 97.712H31.5064C32.0484 97.8502 32.524 98.1757 32.849 98.6308C33.1741 99.086 33.3276 99.6415 33.2824 100.199C33.2601 100.603 33.1802 101.002 33.0454 101.384C32.5714 102.331 31.9794 102.687 30.3214 102.687H27.5974V97.712H29.8474ZM25.8204 111.57H29.8474C32.0974 111.57 32.5714 111.57 33.4004 111.214C34.1795 110.903 34.8459 110.363 35.3113 109.665C35.7767 108.967 36.0191 108.145 36.0064 107.306C35.9931 106.723 35.8601 106.148 35.6157 105.618C35.3712 105.089 35.0206 104.615 34.5854 104.226C33.9895 103.793 33.2991 103.509 32.5714 103.397C33.3445 103.212 34.0332 102.774 34.5273 102.151C35.0213 101.528 35.2922 100.758 35.2964 99.963C35.2797 99.1888 35.0187 98.4397 34.5506 97.8227C34.0826 97.2058 33.4315 96.7526 32.6904 96.528C31.8604 96.172 31.1504 96.172 28.0704 96.172H25.8204V111.57ZM30.3214 104.345H32.2164C32.7778 104.53 33.2595 104.9 33.5825 105.395C33.9054 105.891 34.0503 106.481 33.9934 107.069C34.0274 107.516 33.9464 107.965 33.7564 108.372C33.2824 109.556 32.5714 109.912 30.6764 109.912H27.5964V104.345H30.3214ZM39.4454 96.172H42.0504L44.8934 106.24L45.4854 108.964C45.6304 108.084 45.8284 107.214 46.0774 106.358L48.9204 96.172H51.6444L53.0654 111.57H51.1704L50.2234 100.318C50.2234 99.252 50.1044 97.594 50.1044 97.594C49.9914 98.441 49.7924 99.274 49.5124 100.081L46.1964 111.57H44.6564L41.5764 100.673C41.3404 99.489 41.1034 98.66 40.8664 97.593C40.6294 96.528 40.7484 99.607 40.6294 100.555L39.8004 111.57H38.0234L39.4454 96.172ZM59.6944 100.081L60.5234 97.831L61.2334 100.199C61.5894 101.502 62.8924 105.292 62.8924 105.292H58.0354C58.0354 105.292 59.5754 100.318 59.6944 100.081ZM59.3384 96.172L54.2454 111.57H56.1404L57.5624 106.832H63.3654L64.7874 111.57H66.9184L61.8264 96.173L59.3384 96.172ZM46.0704 33.755L47.8474 38.019C45.1887 37.0434 42.3479 36.6646 39.5264 36.9095C36.705 37.1544 33.9719 38.017 31.5211 39.4361C29.0702 40.8552 26.9615 42.796 25.3446 45.1211C23.7276 47.4462 22.6419 50.0985 22.1644 52.89C21.6874 55.6818 21.8304 58.5444 22.5834 61.2747C23.3365 64.005 24.681 66.5362 26.5217 68.6888C28.3624 70.8413 30.6541 72.5625 33.2344 73.7303C35.8147 74.8981 38.6204 75.4838 41.4524 75.446C43.5015 75.4306 45.5369 75.1115 47.4924 74.499L45.9524 78.289L41.5704 89.067L37.0704 78.289L28.8974 86.579V74.855L18.2374 79.355L22.6204 68.696H11.0124L19.3034 60.524L8.52539 56.023L19.3034 51.641L11.0134 43.468H22.6204L18.2374 32.69L28.8974 37.19V25.584L37.0694 33.756L41.5704 23.096L46.0704 33.755Z" fill="white"/>
</svg>
