<svg width="100%" height="100%" viewBox="0 0 160 144" fill="none" xmlns="http://www.w3.org/2000/svg">
<mask id="path-1-inside-1_199_47" fill="white">
<path d="M0 24C0 10.7452 10.7452 0 24 0H136C149.255 0 160 10.7452 160 24V120C160 133.255 149.255 144 136 144H24C10.7452 144 0 133.255 0 120V24Z"/>
</mask>
<path d="M24 0V4H136V0V-4H24V0ZM160 24H156V120H160H164V24H160ZM136 144V140H24V144V148H136V144ZM0 120H4V24H0H-4V120H0ZM24 144V140C12.9543 140 4 131.046 4 120H0H-4C-4 135.464 8.53602 148 24 148V144ZM160 120H156C156 131.046 147.046 140 136 140V144V148C151.464 148 164 135.464 164 120H160ZM136 0V4C147.046 4 156 12.9543 156 24H160H164C164 8.53603 151.464 -4 136 -4V0ZM24 0V-4C8.53603 -4 -4 8.53603 -4 24H0H4C4 12.9543 12.9543 4 24 4V0Z" fill="black" mask="url(#path-1-inside-1_199_47)"/>
<path d="M26 12.5H81.5V132.5H26C17.4396 132.5 10.5 125.56 10.5 117V28L10.5049 27.5996C10.7172 19.2242 17.5735 12.5 26 12.5Z" fill="black" stroke="black"/>
<mask id="path-4-outside-2_199_47" maskUnits="userSpaceOnUse" x="17" y="41" width="60" height="66" fill="black">
<rect fill="white" x="17" y="41" width="60" height="66"/>
<path d="M39.008 42.944C36 42.944 32.96 43.2 29.888 43.712C26.752 44.16 24.256 44.768 22.4 45.536C21.824 45.728 21.472 45.984 21.344 46.304C21.152 46.56 21.024 47.04 20.96 47.744L19.712 61.088C19.712 61.28 19.872 61.408 20.192 61.472C20.512 61.536 20.736 61.44 20.864 61.184C22.656 55.936 25.216 51.936 28.544 49.184C31.872 46.368 35.872 44.96 40.544 44.96C44.896 44.96 48.8 46.144 52.256 48.512C55.648 50.816 58.336 54.144 60.32 58.496C62.24 62.848 63.2 67.936 63.2 73.76C63.2 79.648 62.208 84.832 60.224 89.312C58.176 93.728 55.392 97.152 51.872 99.584C48.288 101.952 44.192 103.136 39.584 103.136C35.168 103.136 31.456 101.952 28.448 99.584C25.44 97.152 22.592 93.184 19.904 87.68C19.84 87.488 19.648 87.424 19.328 87.488C19.008 87.552 18.848 87.68 18.848 87.872L20.288 99.776C20.416 100.544 20.544 101.056 20.672 101.312C20.8 101.504 21.152 101.728 21.728 101.984C27.616 104.096 33.568 105.152 39.584 105.152C46.432 105.152 52.576 103.872 58.016 101.312C63.392 98.688 67.616 95.04 70.688 90.368C73.76 85.696 75.296 80.384 75.296 74.432C75.296 68.352 73.728 62.944 70.592 58.208C67.392 53.408 63.04 49.664 57.536 46.976C51.968 44.288 45.792 42.944 39.008 42.944Z"/>
</mask>
<path d="M39.008 42.944C36 42.944 32.96 43.2 29.888 43.712C26.752 44.16 24.256 44.768 22.4 45.536C21.824 45.728 21.472 45.984 21.344 46.304C21.152 46.56 21.024 47.04 20.96 47.744L19.712 61.088C19.712 61.28 19.872 61.408 20.192 61.472C20.512 61.536 20.736 61.44 20.864 61.184C22.656 55.936 25.216 51.936 28.544 49.184C31.872 46.368 35.872 44.96 40.544 44.96C44.896 44.96 48.8 46.144 52.256 48.512C55.648 50.816 58.336 54.144 60.32 58.496C62.24 62.848 63.2 67.936 63.2 73.76C63.2 79.648 62.208 84.832 60.224 89.312C58.176 93.728 55.392 97.152 51.872 99.584C48.288 101.952 44.192 103.136 39.584 103.136C35.168 103.136 31.456 101.952 28.448 99.584C25.44 97.152 22.592 93.184 19.904 87.68C19.84 87.488 19.648 87.424 19.328 87.488C19.008 87.552 18.848 87.68 18.848 87.872L20.288 99.776C20.416 100.544 20.544 101.056 20.672 101.312C20.8 101.504 21.152 101.728 21.728 101.984C27.616 104.096 33.568 105.152 39.584 105.152C46.432 105.152 52.576 103.872 58.016 101.312C63.392 98.688 67.616 95.04 70.688 90.368C73.76 85.696 75.296 80.384 75.296 74.432C75.296 68.352 73.728 62.944 70.592 58.208C67.392 53.408 63.04 49.664 57.536 46.976C51.968 44.288 45.792 42.944 39.008 42.944Z" fill="white"/>
<path d="M29.888 43.712L30.0524 44.6984L30.0409 44.7003L30.0294 44.7019L29.888 43.712ZM22.4 45.536L22.7823 46.46L22.7497 46.4735L22.7162 46.4847L22.4 45.536ZM21.344 46.304L22.2725 46.6754L22.2234 46.7982L22.144 46.904L21.344 46.304ZM20.96 47.744L21.9559 47.8345L21.9557 47.8371L20.96 47.744ZM19.712 61.088H18.712V61.0413L18.7163 60.9949L19.712 61.088ZM20.192 61.472L19.9959 62.4526H19.9959L20.192 61.472ZM20.864 61.184L21.8103 61.5071L21.7886 61.5709L21.7584 61.6312L20.864 61.184ZM28.544 49.184L29.19 49.9474L29.1813 49.9546L28.544 49.184ZM52.256 48.512L51.6941 49.3392L51.6908 49.3369L52.256 48.512ZM60.32 58.496L61.23 58.0812L61.2349 58.0924L60.32 58.496ZM60.224 89.312L61.1383 89.7169L61.1348 89.7249L61.1312 89.7327L60.224 89.312ZM51.872 99.584L52.4404 100.407L52.4319 100.413L52.4233 100.418L51.872 99.584ZM28.448 99.584L27.8294 100.37L27.8193 100.362L28.448 99.584ZM19.904 87.68L19.0054 88.1188L18.9763 88.0592L18.9553 87.9962L19.904 87.68ZM18.848 87.872L17.8552 87.9921L17.848 87.9323V87.872H18.848ZM20.288 99.776L19.3016 99.9404L19.2979 99.9183L19.2952 99.8961L20.288 99.776ZM20.672 101.312L19.8399 101.867L19.8054 101.815L19.7776 101.759L20.672 101.312ZM21.728 101.984L21.3904 102.925L21.3556 102.913L21.3219 102.898L21.728 101.984ZM58.016 101.312L58.4546 102.211L58.4482 102.214L58.4418 102.217L58.016 101.312ZM70.688 90.368L71.5236 90.9174L70.688 90.368ZM70.592 58.208L71.4241 57.6533L71.4258 57.6559L70.592 58.208ZM57.536 46.976L57.9708 46.0754L57.9748 46.0774L57.536 46.976ZM39.008 42.944V43.944C36.057 43.944 33.072 44.1951 30.0524 44.6984L29.888 43.712L29.7236 42.7256C32.848 42.2049 35.943 41.944 39.008 41.944V42.944ZM29.888 43.712L30.0294 44.7019C26.9345 45.1441 24.53 45.7368 22.7823 46.46L22.4 45.536L22.0176 44.612C23.982 43.7992 26.5695 43.1759 29.7466 42.722L29.888 43.712ZM22.4 45.536L22.7162 46.4847C22.4902 46.56 22.3597 46.6316 22.2922 46.6807C22.2288 46.7268 22.2503 46.7309 22.2725 46.6754L21.344 46.304L20.4155 45.9326C20.7125 45.1901 21.4299 44.8053 22.0838 44.5873L22.4 45.536ZM21.344 46.304L22.144 46.904C22.1553 46.889 22.1175 46.9364 22.0702 47.1137C22.0255 47.2813 21.9847 47.5174 21.9559 47.8345L20.96 47.744L19.9641 47.6535C20.0291 46.939 20.1689 46.2041 20.544 45.704L21.344 46.304ZM20.96 47.744L21.9557 47.8371L20.7077 61.1811L19.712 61.088L18.7163 60.9949L19.9643 47.6509L20.96 47.744ZM19.712 61.088H20.712C20.712 60.9924 20.6909 60.8817 20.6364 60.7728C20.5829 60.6658 20.5133 60.5924 20.4567 60.5471C20.3591 60.4691 20.3016 60.4741 20.3881 60.4914L20.192 61.472L19.9959 62.4526C19.7624 62.4059 19.4649 62.3149 19.2073 62.1089C18.9084 61.8698 18.712 61.5105 18.712 61.088H19.712ZM20.192 61.472L20.3881 60.4914C20.4158 60.497 20.3335 60.4742 20.2061 60.5289C20.0639 60.5898 19.9919 60.692 19.9696 60.7368L20.864 61.184L21.7584 61.6312C21.6081 61.932 21.3601 62.2102 20.9939 62.3671C20.6424 62.5178 20.2882 62.511 19.9959 62.4526L20.192 61.472ZM20.864 61.184L19.9176 60.8609C21.7526 55.4869 24.4012 51.3122 27.9067 48.4134L28.544 49.184L29.1813 49.9546C26.0308 52.5598 23.5593 56.3851 21.8103 61.5071L20.864 61.184ZM28.544 49.184L27.8981 48.4206C31.4201 45.4404 35.6538 43.96 40.544 43.96V44.96V45.96C36.0902 45.96 32.3239 47.2956 29.1899 49.9474L28.544 49.184ZM40.544 44.96V43.96C45.0894 43.96 49.1921 45.2004 52.8212 47.6871L52.256 48.512L51.6908 49.3369C48.4079 47.0876 44.7025 45.96 40.544 45.96V44.96ZM52.256 48.512L52.8179 47.6848C56.3852 50.1079 59.1827 53.5906 61.2299 58.0812L60.32 58.496L59.4101 58.9108C57.4893 54.6974 54.9108 51.5241 51.6941 49.3392L52.256 48.512ZM60.32 58.496L61.2349 58.0924C63.2221 62.5967 64.2 67.8274 64.2 73.76H63.2H62.2C62.2 68.0446 61.2579 63.0993 59.4051 58.8996L60.32 58.496ZM63.2 73.76H64.2C64.2 79.7599 63.189 85.0864 61.1383 89.7169L60.224 89.312L59.3096 88.9071C61.227 84.5776 62.2 79.5361 62.2 73.76H63.2ZM60.224 89.312L61.1312 89.7327C59.0187 94.2878 56.1265 97.86 52.4404 100.407L51.872 99.584L51.3036 98.7613C54.6575 96.444 57.3333 93.1682 59.3168 88.8913L60.224 89.312ZM51.872 99.584L52.4233 100.418C48.6637 102.902 44.3731 104.136 39.584 104.136V103.136V102.136C44.0109 102.136 47.9123 101.002 51.3207 98.7497L51.872 99.584ZM39.584 103.136V104.136C34.9797 104.136 31.0401 102.897 27.8294 100.37L28.448 99.584L29.0666 98.7983C31.8719 101.007 35.3563 102.136 39.584 102.136V103.136ZM28.448 99.584L27.8193 100.362C24.6505 97.7997 21.7242 93.6858 19.0054 88.1188L19.904 87.68L20.8026 87.2412C23.4598 92.6822 26.2295 96.5043 29.0767 98.8064L28.448 99.584ZM19.904 87.68L18.9553 87.9962C18.9825 88.0779 19.0347 88.1769 19.1249 88.2671C19.215 88.3573 19.3141 88.4094 19.3958 88.4367C19.5367 88.4837 19.6074 88.4519 19.5241 88.4686L19.328 87.488L19.1319 86.5074C19.3686 86.4601 19.6953 86.4284 20.0282 86.5393C20.4228 86.6709 20.7211 86.9692 20.8527 87.3638L19.904 87.68ZM19.328 87.488L19.5241 88.4686C19.4376 88.4859 19.4951 88.4909 19.5927 88.4129C19.6493 88.3676 19.7189 88.2942 19.7724 88.1872C19.8269 88.0783 19.848 87.9676 19.848 87.872H18.848H17.848C17.848 87.4495 18.0444 87.0902 18.3433 86.8511C18.6009 86.6451 18.8984 86.5541 19.1319 86.5074L19.328 87.488ZM18.848 87.872L19.8408 87.7519L21.2808 99.6559L20.288 99.776L19.2952 99.8961L17.8552 87.9921L18.848 87.872ZM20.288 99.776L21.2744 99.6116C21.4049 100.395 21.5152 100.762 21.5664 100.865L20.672 101.312L19.7776 101.759C19.5728 101.35 19.4271 100.693 19.3016 99.9404L20.288 99.776ZM20.672 101.312L21.5041 100.757C21.4716 100.709 21.4492 100.693 21.4649 100.706C21.4784 100.718 21.5103 100.743 21.5689 100.78C21.6878 100.856 21.871 100.953 22.1341 101.07L21.728 101.984L21.3219 102.898C21.009 102.759 20.7282 102.616 20.4951 102.468C20.2814 102.332 20.0204 102.137 19.8399 101.867L20.672 101.312ZM21.728 101.984L22.0656 101.043C27.8497 103.117 33.6876 104.152 39.584 104.152V105.152V106.152C33.4484 106.152 27.3823 105.075 21.3904 102.925L21.728 101.984ZM39.584 105.152V104.152C46.3053 104.152 52.3008 102.896 57.5902 100.407L58.016 101.312L58.4418 102.217C52.8512 104.848 46.5587 106.152 39.584 106.152V105.152ZM58.016 101.312L57.5774 100.413C62.8038 97.8623 66.8859 94.3302 69.8524 89.8186L70.688 90.368L71.5236 90.9174C68.3461 95.7498 63.9802 99.5137 58.4546 102.211L58.016 101.312ZM70.688 90.368L69.8524 89.8186C72.8101 85.3204 74.296 80.202 74.296 74.432H75.296H76.296C76.296 80.566 74.7099 86.0716 71.5236 90.9174L70.688 90.368ZM75.296 74.432H74.296C74.296 68.5339 72.7781 63.3207 69.7582 58.7601L70.592 58.208L71.4258 57.6559C74.6779 62.5673 76.296 68.1701 76.296 74.432H75.296ZM70.592 58.208L69.7599 58.7627C66.6644 54.1193 62.4522 50.4898 57.0972 47.8746L57.536 46.976L57.9748 46.0774C63.6278 48.8382 68.1196 52.6967 71.4241 57.6533L70.592 58.208ZM57.536 46.976L57.1012 47.8765C51.6816 45.2602 45.6563 43.944 39.008 43.944V42.944V41.944C45.9277 41.944 52.2544 43.3158 57.9707 46.0754L57.536 46.976Z" fill="black" mask="url(#path-4-outside-2_199_47)"/>
<mask id="path-6-outside-3_199_47" maskUnits="userSpaceOnUse" x="91" y="43" width="59" height="63" fill="black">
<rect fill="white" x="91" y="43" width="59" height="63"/>
<path d="M123.4 47.9C117.667 47.9 112.733 50.6 108.6 56C104.467 61.3333 102.4 67.8 102.4 75.4C102.4 80 103 84.0667 104.2 87.6C105.4 91.1333 107 93.9 109 95.9C111 97.8333 113.1 99.2667 115.3 100.2C117.5 101.133 119.733 101.6 122 101.6C125.733 101.6 129.267 100.967 132.6 99.7V79.2C132 77.8667 129.9 77.2 126.3 77.2V75.1H148.1V77.2C144.5 77.2 142.4 77.8667 141.8 79.2V96C140.667 98.1333 138.367 100.167 134.9 102.1C131.5 104.033 127.133 105 121.8 105C112.867 105 105.667 102.1 100.2 96.3C94.7333 90.5 92 83.6 92 75.6C92 66.3333 95.1333 58.8333 101.4 53.1C107.667 47.3667 114.967 44.5 123.3 44.5C125.233 44.5 127.633 45 130.5 46C133.367 47 135 47.5 135.4 47.5C136.2 47.5 136.6 46.8333 136.6 45.5H138.9L139.9 58.2H137.7C137.3 55.2667 135.833 52.8333 133.3 50.9C130.767 48.9 127.467 47.9 123.4 47.9Z"/>
</mask>
<path d="M123.4 47.9C117.667 47.9 112.733 50.6 108.6 56C104.467 61.3333 102.4 67.8 102.4 75.4C102.4 80 103 84.0667 104.2 87.6C105.4 91.1333 107 93.9 109 95.9C111 97.8333 113.1 99.2667 115.3 100.2C117.5 101.133 119.733 101.6 122 101.6C125.733 101.6 129.267 100.967 132.6 99.7V79.2C132 77.8667 129.9 77.2 126.3 77.2V75.1H148.1V77.2C144.5 77.2 142.4 77.8667 141.8 79.2V96C140.667 98.1333 138.367 100.167 134.9 102.1C131.5 104.033 127.133 105 121.8 105C112.867 105 105.667 102.1 100.2 96.3C94.7333 90.5 92 83.6 92 75.6C92 66.3333 95.1333 58.8333 101.4 53.1C107.667 47.3667 114.967 44.5 123.3 44.5C125.233 44.5 127.633 45 130.5 46C133.367 47 135 47.5 135.4 47.5C136.2 47.5 136.6 46.8333 136.6 45.5H138.9L139.9 58.2H137.7C137.3 55.2667 135.833 52.8333 133.3 50.9C130.767 48.9 127.467 47.9 123.4 47.9Z" fill="#A89006"/>
<path d="M108.6 56L109.39 56.6126L109.394 56.6078L108.6 56ZM104.2 87.6L103.253 87.9216L104.2 87.6ZM109 95.9L108.293 96.6071L108.299 96.6131L108.305 96.619L109 95.9ZM115.3 100.2L114.909 101.121L115.3 100.2ZM132.6 99.7L132.955 100.635L133.6 100.39V99.7H132.6ZM132.6 79.2H133.6V78.9854L133.512 78.7896L132.6 79.2ZM126.3 77.2H125.3V78.2H126.3V77.2ZM126.3 75.1V74.1H125.3V75.1H126.3ZM148.1 75.1H149.1V74.1H148.1V75.1ZM148.1 77.2V78.2H149.1V77.2H148.1ZM141.8 79.2L140.888 78.7896L140.8 78.9854V79.2H141.8ZM141.8 96L142.683 96.4692L142.8 96.2491V96H141.8ZM134.9 102.1L134.413 101.227L134.406 101.231L134.9 102.1ZM100.2 96.3L100.928 95.6141L100.2 96.3ZM101.4 53.1L102.075 53.8378L101.4 53.1ZM130.5 46L130.829 45.0558L130.5 46ZM136.6 45.5V44.5H135.6V45.5H136.6ZM138.9 45.5L139.897 45.4215L139.824 44.5H138.9V45.5ZM139.9 58.2V59.2H140.982L140.897 58.1215L139.9 58.2ZM137.7 58.2L136.709 58.3351L136.827 59.2H137.7V58.2ZM133.3 50.9L132.68 51.6849L132.687 51.69L132.693 51.695L133.3 50.9ZM123.4 47.9V46.9C117.296 46.9 112.089 49.7967 107.806 55.3922L108.6 56L109.394 56.6078C113.378 51.4033 118.038 48.9 123.4 48.9V47.9ZM108.6 56L107.81 55.3874C103.523 60.918 101.4 67.6077 101.4 75.4H102.4H103.4C103.4 67.9923 105.41 61.7486 109.39 56.6126L108.6 56ZM102.4 75.4H101.4C101.4 80.0849 102.011 84.2638 103.253 87.9216L104.2 87.6L105.147 87.2784C103.989 83.8695 103.4 79.9151 103.4 75.4H102.4ZM104.2 87.6L103.253 87.9216C104.487 91.5557 106.156 94.4698 108.293 96.6071L109 95.9L109.707 95.1929C107.844 93.3302 106.313 90.711 105.147 87.2784L104.2 87.6ZM109 95.9L108.305 96.619C110.379 98.6239 112.58 100.132 114.909 101.121L115.3 100.2L115.691 99.2794C113.62 98.4012 111.621 97.0428 109.695 95.181L109 95.9ZM115.3 100.2L114.909 101.121C117.226 102.103 119.592 102.6 122 102.6V101.6V100.6C119.875 100.6 117.774 100.163 115.691 99.2794L115.3 100.2ZM122 101.6V102.6C125.849 102.6 129.503 101.947 132.955 100.635L132.6 99.7L132.245 98.7652C129.03 99.9868 125.618 100.6 122 100.6V101.6ZM132.6 99.7H133.6V79.2H132.6H131.6V99.7H132.6ZM132.6 79.2L133.512 78.7896C133.047 77.7559 132.061 77.1225 130.878 76.7469C129.688 76.3691 128.146 76.2 126.3 76.2V77.2V78.2C128.054 78.2 129.362 78.3642 130.272 78.6531C131.189 78.9442 131.553 79.3108 131.688 79.6104L132.6 79.2ZM126.3 77.2H127.3V75.1H126.3H125.3V77.2H126.3ZM126.3 75.1V76.1H148.1V75.1V74.1H126.3V75.1ZM148.1 75.1H147.1V77.2H148.1H149.1V75.1H148.1ZM148.1 77.2V76.2C146.254 76.2 144.712 76.3691 143.522 76.7469C142.339 77.1225 141.353 77.7559 140.888 78.7896L141.8 79.2L142.712 79.6104C142.847 79.3108 143.211 78.9442 144.128 78.6531C145.038 78.3642 146.346 78.2 148.1 78.2V77.2ZM141.8 79.2H140.8V96H141.8H142.8V79.2H141.8ZM141.8 96L140.917 95.5308C139.915 97.4169 137.809 99.3327 134.413 101.227L134.9 102.1L135.387 102.973C138.924 101.001 141.418 98.8498 142.683 96.4692L141.8 96ZM134.9 102.1L134.406 101.231C131.201 103.053 127.02 104 121.8 104V105V106C127.246 106 131.799 105.014 135.394 102.969L134.9 102.1ZM121.8 105V104C113.105 104 106.182 101.188 100.928 95.6141L100.2 96.3L99.4723 96.9859C105.152 103.012 112.628 106 121.8 106V105ZM100.2 96.3L100.928 95.6141C95.6367 90.0004 93 83.3461 93 75.6H92H91C91 83.8539 93.83 90.9996 99.4723 96.9859L100.2 96.3ZM92 75.6H93C93 66.5854 96.0356 59.3633 102.075 53.8378L101.4 53.1L100.725 52.3622C94.2311 58.3034 91 66.0812 91 75.6H92ZM101.4 53.1L102.075 53.8378C108.161 48.2695 115.222 45.5 123.3 45.5V44.5V43.5C114.712 43.5 107.172 46.4638 100.725 52.3622L101.4 53.1ZM123.3 44.5V45.5C125.076 45.5 127.357 45.9625 130.171 46.9442L130.5 46L130.829 45.0558C127.91 44.0374 125.391 43.5 123.3 43.5V44.5ZM130.5 46L130.171 46.9442C131.608 47.4457 132.747 47.8256 133.582 48.0812C133.999 48.2087 134.35 48.3085 134.63 48.3773C134.876 48.4378 135.163 48.5 135.4 48.5V47.5V46.5C135.437 46.5 135.37 46.4997 135.108 46.4352C134.879 46.379 134.568 46.2913 134.168 46.1688C133.369 45.9244 132.258 45.5543 130.829 45.0558L130.5 46ZM135.4 47.5V48.5C136.139 48.5 136.77 48.1596 137.157 47.5145C137.496 46.9508 137.6 46.234 137.6 45.5H136.6H135.6C135.6 46.0993 135.504 46.3825 135.443 46.4855C135.421 46.5221 135.417 46.5135 135.439 46.5008C135.461 46.4889 135.458 46.5 135.4 46.5V47.5ZM136.6 45.5V46.5H138.9V45.5V44.5H136.6V45.5ZM138.9 45.5L137.903 45.5785L138.903 58.2785L139.9 58.2L140.897 58.1215L139.897 45.4215L138.9 45.5ZM139.9 58.2V57.2H137.7V58.2V59.2H139.9V58.2ZM137.7 58.2L138.691 58.0649C138.252 54.8481 136.633 52.1853 133.907 50.105L133.3 50.9L132.693 51.695C135.034 53.4814 136.348 55.6852 136.709 58.3351L137.7 58.2ZM133.3 50.9L133.92 50.1151C131.168 47.9429 127.632 46.9 123.4 46.9V47.9V48.9C127.301 48.9 130.365 49.8571 132.68 51.6849L133.3 50.9Z" fill="black" mask="url(#path-6-outside-3_199_47)"/>
</svg>
